<?xml version="1.0" encoding="iso-8859-1"?>
<!-- Generator: Adobe Illustrator 20.0.0, SVG Export Plug-In . SVG Version: 6.00 Build 0)  -->
<svg version="1.1" id="Layer_1" xmlns="http://www.w3.org/2000/svg" xmlns:xlink="http://www.w3.org/1999/xlink" x="0px" y="0px"
	 viewBox="0 0 84.308 42.713" style="enable-background:new 0 0 84.308 42.713;" xml:space="preserve">
<path style="fill:#F2EFE8;" d="M30.536,26.579c-4.187-2.391-8.223-5.021-12.113-7.883c-0.215-0.167-0.449-0.334-0.659-0.5
	c-0.087-0.065-0.17-0.136-0.257-0.201C9.384,11.51,4.669,5.21,0,0l53.343,0c0.835,2.81,1.553,5.6,2.929,8.038
	c8.266,14.646,17.384,21.265,26.057,26.866c3.887,2.51,1.728,8.323-3.686,7.773c-5.015-0.51-9.39-1.368-13.159-2.383
	c-12.567-3.029-24.178-7.579-34.831-13.649C30.613,26.623,30.576,26.601,30.536,26.579z"/>
<g>
</g>
<g>
</g>
<g>
</g>
<g>
</g>
<g>
</g>
<g>
</g>
<g>
</g>
<g>
</g>
<g>
</g>
<g>
</g>
<g>
</g>
<g>
</g>
<g>
</g>
<g>
</g>
<g>
</g>
</svg>
